<?xml version="1.0" encoding="UTF-8"?>
<svg width="32" height="32" viewBox="0 0 32 32" fill="none" xmlns="http://www.w3.org/2000/svg">
  <defs>
    <linearGradient id="roseGradient" x1="0%" y1="0%" x2="100%" y2="100%">
      <stop offset="0%" style="stop-color:#E11D48"/>
      <stop offset="100%" style="stop-color:#BE123C"/>
    </linearGradient>
  </defs>
  <path d="M16 2C8.268 2 2 8.268 2 16s6.268 14 14 14 14-6.268 14-14S23.732 2 16 2zm0 26c-6.627 0-12-5.373-12-12S9.373 4 16 4s12 5.373 12 12-5.373 12-12 12z" fill="url(#roseGradient)"/>
  <path d="M16 6c-5.523 0-10 4.477-10 10s4.477 10 10 10 10-4.477 10-10-4.477-10-10-10zm0 18c-4.411 0-8-3.589-8-8s3.589-8 8-8 8 3.589 8 8-3.589 8-8 8z" fill="url(#roseGradient)"/>
  <path d="M16 10c-3.314 0-6 2.686-6 6s2.686 6 6 6 6-2.686 6-6-2.686-6-6-6zm0 10c-2.209 0-4-1.791-4-4s1.791-4 4-4 4 1.791 4 4-1.791 4-4 4z" fill="url(#roseGradient)"/>
</svg> 